<svg width="11" height="78" viewBox="0 0 11 78" fill="none" xmlns="http://www.w3.org/2000/svg">
<mask id="mask0_1_847" style="mask-type:luminance" maskUnits="userSpaceOnUse" x="0" y="0" width="11" height="78">
<path fill-rule="evenodd" clip-rule="evenodd" d="M0.0918579 0.737549H10.2079V77.354H0.0918579V0.737549Z" fill="white"/>
</mask>
<g mask="url(#mask0_1_847)">
<path fill-rule="evenodd" clip-rule="evenodd" d="M0.0918579 76.0295C0.0918579 72.3478 2.29814 70.5011 4.24214 68.8701C6.03529 67.3708 7.44957 66.1874 7.44957 63.7088C7.44957 61.2285 6.03529 60.0452 4.24214 58.5425C2.29814 56.9131 0.0918579 55.0665 0.0918579 51.3831C0.0918579 47.703 2.29814 45.8564 4.24214 44.227C6.03529 42.7277 7.44957 41.5427 7.44957 39.0657C7.44957 36.5854 6.03529 35.4004 4.24214 33.8994C2.29814 32.2684 0.0918579 30.4218 0.0918579 26.7368C0.0918579 23.0518 2.29643 21.2018 4.24214 19.5708C6.03357 18.0698 7.44957 16.8815 7.44957 14.3996C7.44957 11.9177 6.03357 10.731 4.24214 9.23005C2.29643 7.59738 0.0918579 5.74911 0.0918579 2.06244C0.0918579 1.33169 0.709001 0.737549 1.47186 0.737549C2.233 0.737549 2.85014 1.33169 2.85014 2.06244C2.85014 4.54601 4.26614 5.73265 6.05757 7.23365C8.00329 8.86467 10.2079 10.7129 10.2079 14.3996C10.2079 18.0846 8.00329 19.9345 6.05586 21.5656C4.26614 23.0682 2.85014 24.2549 2.85014 26.7368C2.85014 29.217 4.26614 30.4037 6.05586 31.903C8.00329 33.5341 10.2079 35.3807 10.2079 39.0657C10.2079 42.7474 8.00157 44.5941 6.05586 46.2234C4.26614 47.7228 2.85014 48.9078 2.85014 51.3831C2.85014 53.8634 4.26614 55.0468 6.05586 56.5478C8.00157 58.1771 10.2079 60.0254 10.2079 63.7088C10.2079 67.3905 8.00157 69.2388 6.05586 70.8682C4.26614 72.3675 2.85014 73.5525 2.85014 76.0295C2.85014 76.7602 2.233 77.3544 1.47186 77.3544C0.709001 77.3544 0.0918579 76.7602 0.0918579 76.0295Z" fill="#F64B4B"/>
</g>
</svg>
